<svg id="Warstwa_1" data-name="Warstwa 1" xmlns="http://www.w3.org/2000/svg" viewBox="0 0 91.5 98.8"><title>delivery</title><path d="M50.21,99.5a1.88,1.88,0,0,1-1-.25L14.79,79.33a1.89,1.89,0,0,1-.95-1.64V59.18a1.9,1.9,0,0,1,3.8,0V76.59L50.21,95.41,82.74,76.59V59.18a1.9,1.9,0,0,1,3.8,0V77.69a1.91,1.91,0,0,1-1,1.64L51.16,99.24A1.89,1.89,0,0,1,50.21,99.5Z" transform="translate(-4.61 -0.7)"/><path d="M84.63,39.8a1.89,1.89,0,0,1-.94-.25L50.21,20.22,16.69,39.55a1.9,1.9,0,0,1-1.9-3.29L49.26,16.38a1.9,1.9,0,0,1,1.9,0L85.59,36.26a1.9,1.9,0,0,1-1,3.54Z" transform="translate(-4.61 -0.7)"/><path d="M50.21,99.5a1.9,1.9,0,0,1-1.9-1.9V58.91L14.79,39.55a1.9,1.9,0,0,1,1.9-3.29L51.16,56.17a1.89,1.89,0,0,1,1,1.64V97.6A1.9,1.9,0,0,1,50.21,99.5Z" transform="translate(-4.61 -0.7)"/><path d="M50.21,59.71a1.9,1.9,0,0,1-1-3.54L83.69,36.26a1.9,1.9,0,0,1,1.9,3.29L51.16,59.46A1.93,1.93,0,0,1,50.21,59.71Z" transform="translate(-4.61 -0.7)"/><path d="M84.63,39.8a1.86,1.86,0,0,1-1-.29A1.9,1.9,0,0,1,83,36.9l8.54-13.73-31.17-18L51.82,19a1.9,1.9,0,0,1-3.23-2L58.13,1.6A1.91,1.91,0,0,1,60.7,1L95.16,20.87a1.88,1.88,0,0,1,.9,1.18,1.94,1.94,0,0,1-.23,1.47L86.25,38.91A1.91,1.91,0,0,1,84.63,39.8Z" transform="translate(-4.61 -0.7)"/><path d="M59.78,76.43a1.82,1.82,0,0,1-.46-.06,1.92,1.92,0,0,1-1.19-.89l-9-15.77a1.9,1.9,0,1,1,3.3-1.89l8,14.06L91.08,53,83,38.85A1.9,1.9,0,1,1,86.29,37l9,15.73a1.9,1.9,0,0,1-.65,2.56L60.78,76.15A1.87,1.87,0,0,1,59.78,76.43Z" transform="translate(-4.61 -0.7)"/><path d="M40.94,76.43a1.87,1.87,0,0,1-1-.28L6.08,55.25a1.9,1.9,0,0,1-.65-2.56l9-15.73a1.9,1.9,0,1,1,3.29,1.89L9.64,53l30.62,18.9,8-14.06a1.9,1.9,0,1,1,3.3,1.89l-9,15.77a1.92,1.92,0,0,1-1.18.89A2,2,0,0,1,40.94,76.43Z" transform="translate(-4.61 -0.7)"/><path d="M16.09,39.8a1.91,1.91,0,0,1-1.62-.89L4.9,23.52a1.86,1.86,0,0,1-.23-1.47,1.84,1.84,0,0,1,.89-1.18L40,1a1.91,1.91,0,0,1,2.57.65L52.13,17a1.9,1.9,0,0,1-3.23,2L40.33,5.17l-31.17,18L17.7,36.9a1.9,1.9,0,0,1-.61,2.61A1.84,1.84,0,0,1,16.09,39.8Z" transform="translate(-4.61 -0.7)"/></svg>