<svg id="Warstwa_1" data-name="Warstwa 1" xmlns="http://www.w3.org/2000/svg" viewBox="0 0 71.16 94.19"><title>locked</title><path d="M79.3,97.09H20.7a6.28,6.28,0,0,1-6.28-6.28v-46a6.29,6.29,0,0,1,6.28-6.28H79.3a6.29,6.29,0,0,1,6.28,6.28v46A6.28,6.28,0,0,1,79.3,97.09ZM20.7,42.67a2.1,2.1,0,0,0-2.1,2.1v46a2.1,2.1,0,0,0,2.1,2.1H79.3a2.1,2.1,0,0,0,2.1-2.1v-46a2.1,2.1,0,0,0-2.1-2.1Z" transform="translate(-14.42 -2.91)"/><path d="M70.93,42.67a2.08,2.08,0,0,1-2.09-2.09V25.93a18.84,18.84,0,0,0-37.68,0V40.58a2.09,2.09,0,0,1-4.18,0V25.93a23,23,0,0,1,46,0V40.58A2.08,2.08,0,0,1,70.93,42.67Z" transform="translate(-14.42 -2.91)"/><path d="M56.28,63.6a6.28,6.28,0,1,0-10.47,4.66v5.81a4.19,4.19,0,0,0,8.38,0V68.26A6.27,6.27,0,0,0,56.28,63.6Z" transform="translate(-14.42 -2.91)"/></svg>