<svg id="Warstwa_1" data-name="Warstwa 1" xmlns="http://www.w3.org/2000/svg" viewBox="0 0 90 90.11"><title>return</title><g id="Layer_2" data-name="Layer 2"><path d="M51,97.05A45,45,0,0,0,96,54.29a2,2,0,0,0-4-.21A41,41,0,1,1,73,17.34l-4.53,5.54,13-1.31-1.31-13-4.58,5.63A45,45,0,1,0,51,97.05Z" transform="translate(-6 -6.94)"/><path d="M72.27,42.75s0,0,0,0,0-.08,0-.14,0-.08,0-.1,0-.06,0-.08A1.45,1.45,0,0,0,72,42h0L63.46,29.52a2,2,0,0,0-1.66-.88H40.22a2,2,0,0,0-1.66.88L30.05,42h0a2,2,0,0,0-.19.35s0,0,0,.08a.15.15,0,0,0,0,.11c0,.05,0,.08,0,.13s0,0,0,0a1.92,1.92,0,0,0-.05.41h0V73.36a2,2,0,0,0,2,2H70.29a2,2,0,0,0,2-2V43.15h0A1.59,1.59,0,0,0,72.27,42.75Zm-31-10.09H60.73l5.76,8.46h-31Zm27,38.72H33.74V45.16H68.31V71.38Z" transform="translate(-6 -6.94)"/></g></svg>